ISO-10303-21;
HEADER;
/****************************************************************
 * Generated by software with PDElib inside                    *
 * PDElib Version v51a, created Wed 11/30/2011                  *
 * ITI Transcendata (http://www.transcendata.com/)              *
 ****************************************************************/
FILE_DESCRIPTION((''),'2;1');
FILE_NAME('D:\\Dennis\\Modellbau\\CAD\\Turnigy 3300mAh 4S\\Turnigy 3300mAh 4S.stp','2013-03-06T08:01:03',('Dennis'),(''),'Autodesk Inventor 2013','Autodesk Inventor 2013','');
FILE_SCHEMA(('AUTOMOTIVE_DESIGN { 1 0 10303 214 1 1 1 1 }'));
ENDSEC;
DATA;
#5=APPLICATION_CONTEXT('automotive design');
#6=APPLICATION_PROTOCOL_DEFINITION('International Standard','automotive_design',2001,#5);
#7=PRODUCT_CONTEXT('',#5,'mechanical');
#8=PRODUCT('Turnigy 3300mAh 4S','Turnigy 3300mAh 4S',$,(#7));
#9=PRODUCT_RELATED_PRODUCT_CATEGORY('part',$,(#8));
#10=PRODUCT_DEFINITION_FORMATION('',$,#8);
#11=PRODUCT_DEFINITION_CONTEXT('part definition',#5,'design');
#12=PRODUCT_DEFINITION('',$,#10,#11);
#18=(NAMED_UNIT(*)PLANE_ANGLE_UNIT()SI_UNIT($,.RADIAN.));
#19=DIMENSIONAL_EXPONENTS(0.0,0.0,0.0,0.0,0.0,0.0,0.0);
#20=PLANE_ANGLE_MEASURE_WITH_UNIT(PLANE_ANGLE_MEASURE(0.0174532925),#18);
#24=(CONVERSION_BASED_UNIT('DEGREE',#20)NAMED_UNIT(#19)PLANE_ANGLE_UNIT());
#28=(NAMED_UNIT(*)SI_UNIT($,.STERADIAN.)SOLID_ANGLE_UNIT());
#32=(LENGTH_UNIT()NAMED_UNIT(*)SI_UNIT(.MILLI.,.METRE.));
#34=UNCERTAINTY_MEASURE_WITH_UNIT(LENGTH_MEASURE(0.01),#32,'DISTANCE_ACCURACY_VALUE','');
#36=(GEOMETRIC_REPRESENTATION_CONTEXT(3)GLOBAL_UNCERTAINTY_ASSIGNED_CONTEXT((#34))GLOBAL_UNIT_ASSIGNED_CONTEXT((#24,#28,#32))REPRESENTATION_CONTEXT('None','None'));
#37=AXIS2_PLACEMENT_3D('',#38,#39,#40);
#38=CARTESIAN_POINT('',(0.0,0.0,0.0));
#39=DIRECTION('',(0.0,0.0,1.0));
#40=DIRECTION('',(1.0,0.0,0.0));
#41=SHAPE_REPRESENTATION('',(#37),#36);
#42=PRODUCT_DEFINITION_SHAPE('','',#12);
#43=SHAPE_DEFINITION_REPRESENTATION(#42,#41);
#49=(NAMED_UNIT(*)PLANE_ANGLE_UNIT()SI_UNIT($,.RADIAN.));
#50=DIMENSIONAL_EXPONENTS(0.0,0.0,0.0,0.0,0.0,0.0,0.0);
#51=PLANE_ANGLE_MEASURE_WITH_UNIT(PLANE_ANGLE_MEASURE(0.0174532925),#49);
#55=(CONVERSION_BASED_UNIT('DEGREE',#51)NAMED_UNIT(#50)PLANE_ANGLE_UNIT());
#59=(NAMED_UNIT(*)SI_UNIT($,.STERADIAN.)SOLID_ANGLE_UNIT());
#63=(LENGTH_UNIT()NAMED_UNIT(*)SI_UNIT(.MILLI.,.METRE.));
#65=UNCERTAINTY_MEASURE_WITH_UNIT(LENGTH_MEASURE(0.000001),#63,'DISTANCE_ACCURACY_VALUE','');
#67=(GEOMETRIC_REPRESENTATION_CONTEXT(3)GLOBAL_UNCERTAINTY_ASSIGNED_CONTEXT((#65))GLOBAL_UNIT_ASSIGNED_CONTEXT((#55,#59,#63))REPRESENTATION_CONTEXT('','3D'));
#68=CARTESIAN_POINT('',(-69.0,8.999999999999995,-4.000000000000002));
#69=DIRECTION('',(-1.0,0.0,0.0));
#70=DIRECTION('',(0.0,0.0,1.0));
#71=AXIS2_PLACEMENT_3D('',#68,#69,#70);
#72=CYLINDRICAL_SURFACE('',#71,6.000000000000001);
#73=CARTESIAN_POINT('',(-69.0,9.000000000000004,-10.000000000000002));
#74=VERTEX_POINT('',#73);
#75=CARTESIAN_POINT('',(-69.0,14.999999999999996,-4.000000000000004));
#76=VERTEX_POINT('',#75);
#77=CARTESIAN_POINT('',(-69.0,8.999999999999995,-4.000000000000002));
#78=DIRECTION('',(1.0,0.0,0.0));
#79=DIRECTION('',(0.0,0.0,1.0));
#80=AXIS2_PLACEMENT_3D('',#77,#78,#79);
#81=CIRCLE('',#80,6.000000000000001);
#82=EDGE_CURVE('',#74,#76,#81,.T.);
#83=ORIENTED_EDGE('',*,*,#82,.F.);
#84=CARTESIAN_POINT('',(-68.800000000000011,9.000000000000004,-10.000000000000002));
#85=VERTEX_POINT('',#84);
#86=CARTESIAN_POINT('',(-69.0,9.000000000000004,-10.000000000000002));
#87=DIRECTION('',(1.0,0.0,0.0));
#88=VECTOR('',#87,0.199999999999989);
#89=LINE('',#86,#88);
#90=EDGE_CURVE('',#74,#85,#89,.T.);
#91=ORIENTED_EDGE('',*,*,#90,.T.);
#92=CARTESIAN_POINT('',(-68.800000000000011,14.999999999999996,-4.000000000000004));
#93=VERTEX_POINT('',#92);
#94=CARTESIAN_POINT('',(-68.800000000000011,8.999999999999995,-4.000000000000002));
#95=DIRECTION('',(-1.0,0.0,0.0));
#96=DIRECTION('',(0.0,0.0,1.0));
#97=AXIS2_PLACEMENT_3D('',#94,#95,#96);
#98=CIRCLE('',#97,6.000000000000001);
#99=EDGE_CURVE('',#93,#85,#98,.T.);
#100=ORIENTED_EDGE('',*,*,#99,.F.);
#101=CARTESIAN_POINT('',(-69.0,14.999999999999996,-4.000000000000004));
#102=DIRECTION('',(1.0,0.0,0.0));
#103=VECTOR('',#102,0.199999999999989);
#104=LINE('',#101,#103);
#105=EDGE_CURVE('',#76,#93,#104,.T.);
#106=ORIENTED_EDGE('',*,*,#105,.F.);
#107=EDGE_LOOP('',(#83,#91,#100,#106));
#108=FACE_OUTER_BOUND('',#107,.T.);
#109=ADVANCED_FACE('',(#108),#72,.F.);
#110=CARTESIAN_POINT('',(-69.0,15.0,3.999999999999999));
#111=DIRECTION('',(0.0,-1.0,0.0));
#112=DIRECTION('',(0.0,0.0,-1.0));
#113=AXIS2_PLACEMENT_3D('',#110,#111,#112);
#114=PLANE('',#113);
#115=CARTESIAN_POINT('',(-69.0,15.0,3.999999999999999));
#116=VERTEX_POINT('',#115);
#117=CARTESIAN_POINT('',(-69.0,14.999999999999996,-4.000000000000004));
#118=DIRECTION('',(0.0,0.0,1.0));
#119=VECTOR('',#118,8.000000000000004);
#120=LINE('',#117,#119);
#121=EDGE_CURVE('',#76,#116,#120,.T.);
#122=ORIENTED_EDGE('',*,*,#121,.F.);
#123=ORIENTED_EDGE('',*,*,#105,.T.);
#124=CARTESIAN_POINT('',(-68.800000000000011,15.0,3.999999999999999));
#125=VERTEX_POINT('',#124);
#126=CARTESIAN_POINT('',(-68.800000000000011,15.0,3.999999999999999));
#127=DIRECTION('',(0.0,0.0,-1.0));
#128=VECTOR('',#127,8.000000000000004);
#129=LINE('',#126,#128);
#130=EDGE_CURVE('',#125,#93,#129,.T.);
#131=ORIENTED_EDGE('',*,*,#130,.F.);
#132=CARTESIAN_POINT('',(-69.0,15.0,3.999999999999999));
#133=DIRECTION('',(1.0,0.0,0.0));
#134=VECTOR('',#133,0.199999999999989);
#135=LINE('',#132,#134);
#136=EDGE_CURVE('',#116,#125,#135,.T.);
#137=ORIENTED_EDGE('',*,*,#136,.F.);
#138=EDGE_LOOP('',(#122,#123,#131,#137));
#139=FACE_OUTER_BOUND('',#138,.T.);
#140=ADVANCED_FACE('',(#139),#114,.T.);
#141=CARTESIAN_POINT('',(-69.0,9.0,3.999999999999999));
#142=DIRECTION('',(-1.0,0.0,0.0));
#143=DIRECTION('',(0.0,-1.0,0.0));
#144=AXIS2_PLACEMENT_3D('',#141,#142,#143);
#145=CYLINDRICAL_SURFACE('',#144,6.000000000000001);
#146=CARTESIAN_POINT('',(-69.0,9.0,10.0));
#147=VERTEX_POINT('',#146);
#148=CARTESIAN_POINT('',(-69.0,9.0,3.999999999999999));
#149=DIRECTION('',(1.0,0.0,0.0));
#150=DIRECTION('',(0.0,-1.0,0.0));
#151=AXIS2_PLACEMENT_3D('',#148,#149,#150);
#152=CIRCLE('',#151,6.000000000000001);
#153=EDGE_CURVE('',#116,#147,#152,.T.);
#154=ORIENTED_EDGE('',*,*,#153,.F.);
#155=ORIENTED_EDGE('',*,*,#136,.T.);
#156=CARTESIAN_POINT('',(-68.800000000000011,9.0,9.999999999999998));
#157=VERTEX_POINT('',#156);
#158=CARTESIAN_POINT('',(-68.800000000000011,9.0,3.999999999999999));
#159=DIRECTION('',(-1.0,0.0,0.0));
#160=DIRECTION('',(0.0,-1.0,0.0));
#161=AXIS2_PLACEMENT_3D('',#158,#159,#160);
#162=CIRCLE('',#161,6.000000000000001);
#163=EDGE_CURVE('',#157,#125,#162,.T.);
#164=ORIENTED_EDGE('',*,*,#163,.F.);
#165=CARTESIAN_POINT('',(-69.0,9.0,10.0));
#166=DIRECTION('',(1.0,0.0,0.0));
#167=VECTOR('',#166,0.199999999999989);
#168=LINE('',#165,#167);
#169=EDGE_CURVE('',#147,#157,#168,.T.);
#170=ORIENTED_EDGE('',*,*,#169,.F.);
#171=EDGE_LOOP('',(#154,#155,#164,#170));
#172=FACE_OUTER_BOUND('',#171,.T.);
#173=ADVANCED_FACE('',(#172),#145,.F.);
#174=CARTESIAN_POINT('',(-69.0,-9.0,9.999999999999996));
#175=DIRECTION('',(0.0,0.0,-1.0));
#176=DIRECTION('',(0.0,1.0,0.0));
#177=AXIS2_PLACEMENT_3D('',#174,#175,#176);
#178=PLANE('',#177);
#179=CARTESIAN_POINT('',(-69.0,-9.0,9.999999999999996));
#180=VERTEX_POINT('',#179);
#181=CARTESIAN_POINT('',(-69.0,9.0,9.999999999999998));
#182=DIRECTION('',(0.0,-1.0,0.0));
#183=VECTOR('',#182,18.0);
#184=LINE('',#181,#183);
#185=EDGE_CURVE('',#147,#180,#184,.T.);
#186=ORIENTED_EDGE('',*,*,#185,.F.);
#187=ORIENTED_EDGE('',*,*,#169,.T.);
#188=CARTESIAN_POINT('',(-68.800000000000011,-9.0,9.999999999999996));
#189=VERTEX_POINT('',#188);
#190=CARTESIAN_POINT('',(-68.800000000000011,-9.0,9.999999999999996));
#191=DIRECTION('',(0.0,1.0,0.0));
#192=VECTOR('',#191,18.0);
#193=LINE('',#190,#192);
#194=EDGE_CURVE('',#189,#157,#193,.T.);
#195=ORIENTED_EDGE('',*,*,#194,.F.);
#196=CARTESIAN_POINT('',(-69.0,-9.0,9.999999999999996));
#197=DIRECTION('',(1.0,0.0,0.0));
#198=VECTOR('',#197,0.199999999999989);
#199=LINE('',#196,#198);
#200=EDGE_CURVE('',#180,#189,#199,.T.);
#201=ORIENTED_EDGE('',*,*,#200,.F.);
#202=EDGE_LOOP('',(#186,#187,#195,#201));
#203=FACE_OUTER_BOUND('',#202,.T.);
#204=ADVANCED_FACE('',(#203),#178,.T.);
#205=CARTESIAN_POINT('',(-69.0,-9.000000000000004,3.999999999999999));
#206=DIRECTION('',(-1.0,0.0,0.0));
#207=DIRECTION('',(0.0,0.0,-1.0));
#208=AXIS2_PLACEMENT_3D('',#205,#206,#207);
#209=CYLINDRICAL_SURFACE('',#208,5.999999999999996);
#210=CARTESIAN_POINT('',(-69.0,-15.0,3.999999999999993));
#211=VERTEX_POINT('',#210);
#212=CARTESIAN_POINT('',(-69.0,-9.000000000000004,3.999999999999999));
#213=DIRECTION('',(1.0,0.0,0.0));
#214=DIRECTION('',(0.0,0.0,-1.0));
#215=AXIS2_PLACEMENT_3D('',#212,#213,#214);
#216=CIRCLE('',#215,5.999999999999996);
#217=EDGE_CURVE('',#180,#211,#216,.T.);
#218=ORIENTED_EDGE('',*,*,#217,.F.);
#219=ORIENTED_EDGE('',*,*,#200,.T.);
#220=CARTESIAN_POINT('',(-68.800000000000011,-15.0,3.999999999999993));
#221=VERTEX_POINT('',#220);
#222=CARTESIAN_POINT('',(-68.800000000000011,-9.000000000000004,3.999999999999999));
#223=DIRECTION('',(-1.0,0.0,0.0));
#224=DIRECTION('',(0.0,0.0,-1.0));
#225=AXIS2_PLACEMENT_3D('',#222,#223,#224);
#226=CIRCLE('',#225,5.999999999999996);
#227=EDGE_CURVE('',#221,#189,#226,.T.);
#228=ORIENTED_EDGE('',*,*,#227,.F.);
#229=CARTESIAN_POINT('',(-69.0,-15.0,3.999999999999993));
#230=DIRECTION('',(1.0,0.0,0.0));
#231=VECTOR('',#230,0.199999999999989);
#232=LINE('',#229,#231);
#233=EDGE_CURVE('',#211,#221,#232,.T.);
#234=ORIENTED_EDGE('',*,*,#233,.F.);
#235=EDGE_LOOP('',(#218,#219,#228,#234));
#236=FACE_OUTER_BOUND('',#235,.T.);
#237=ADVANCED_FACE('',(#236),#209,.F.);
#238=CARTESIAN_POINT('',(-69.0,-14.999999999999996,-4.000000000000007));
#239=DIRECTION('',(0.0,1.0,0.0));
#240=DIRECTION('',(0.0,0.0,1.0));
#241=AXIS2_PLACEMENT_3D('',#238,#239,#240);
#242=PLANE('',#241);
#243=CARTESIAN_POINT('',(-69.0,-14.999999999999996,-4.000000000000007));
#244=VERTEX_POINT('',#243);
#245=CARTESIAN_POINT('',(-69.0,-14.999999999999998,3.999999999999992));
#246=DIRECTION('',(0.0,0.0,-1.0));
#247=VECTOR('',#246,7.999999999999999);
#248=LINE('',#245,#247);
#249=EDGE_CURVE('',#211,#244,#248,.T.);
#250=ORIENTED_EDGE('',*,*,#249,.F.);
#251=ORIENTED_EDGE('',*,*,#233,.T.);
#252=CARTESIAN_POINT('',(-68.800000000000011,-14.999999999999996,-4.000000000000007));
#253=VERTEX_POINT('',#252);
#254=CARTESIAN_POINT('',(-68.800000000000011,-14.999999999999996,-4.000000000000007));
#255=DIRECTION('',(0.0,0.0,1.0));
#256=VECTOR('',#255,7.999999999999999);
#257=LINE('',#254,#256);
#258=EDGE_CURVE('',#253,#221,#257,.T.);
#259=ORIENTED_EDGE('',*,*,#258,.F.);
#260=CARTESIAN_POINT('',(-69.0,-14.999999999999996,-4.000000000000007));
#261=DIRECTION('',(1.0,0.0,0.0));
#262=VECTOR('',#261,0.199999999999989);
#263=LINE('',#260,#262);
#264=EDGE_CURVE('',#244,#253,#263,.T.);
#265=ORIENTED_EDGE('',*,*,#264,.F.);
#266=EDGE_LOOP('',(#250,#251,#259,#265));
#267=FACE_OUTER_BOUND('',#266,.T.);
#268=ADVANCED_FACE('',(#267),#242,.T.);
#269=CARTESIAN_POINT('',(-69.0,-8.999999999999995,-4.000000000000005));
#270=DIRECTION('',(-1.0,0.0,0.0));
#271=DIRECTION('',(0.0,1.0,0.0));
#272=AXIS2_PLACEMENT_3D('',#269,#270,#271);
#273=CYLINDRICAL_SURFACE('',#272,6.000000000000002);
#274=CARTESIAN_POINT('',(-69.0,-9.0,-10.000000000000009));
#275=VERTEX_POINT('',#274);
#276=CARTESIAN_POINT('',(-69.0,-8.999999999999995,-4.000000000000005));
#277=DIRECTION('',(1.0,0.0,0.0));
#278=DIRECTION('',(0.0,1.0,0.0));
#279=AXIS2_PLACEMENT_3D('',#276,#277,#278);
#280=CIRCLE('',#279,6.000000000000002);
#281=EDGE_CURVE('',#244,#275,#280,.T.);
#282=ORIENTED_EDGE('',*,*,#281,.F.);
#283=ORIENTED_EDGE('',*,*,#264,.T.);
#284=CARTESIAN_POINT('',(-68.800000000000011,-9.0,-10.000000000000009));
#285=VERTEX_POINT('',#284);
#286=CARTESIAN_POINT('',(-68.800000000000011,-8.999999999999995,-4.000000000000005));
#287=DIRECTION('',(-1.0,0.0,0.0));
#288=DIRECTION('',(0.0,1.0,0.0));
#289=AXIS2_PLACEMENT_3D('',#286,#287,#288);
#290=CIRCLE('',#289,6.000000000000002);
#291=EDGE_CURVE('',#285,#253,#290,.T.);
#292=ORIENTED_EDGE('',*,*,#291,.F.);
#293=CARTESIAN_POINT('',(-69.0,-9.0,-10.000000000000009));
#294=DIRECTION('',(1.0,0.0,0.0));
#295=VECTOR('',#294,0.199999999999989);
#296=LINE('',#293,#295);
#297=EDGE_CURVE('',#275,#285,#296,.T.);
#298=ORIENTED_EDGE('',*,*,#297,.F.);
#299=EDGE_LOOP('',(#282,#283,#292,#298));
#300=FACE_OUTER_BOUND('',#299,.T.);
#301=ADVANCED_FACE('',(#300),#273,.F.);
#302=CARTESIAN_POINT('',(-69.0,9.000000000000004,-10.000000000000002));
#303=DIRECTION('',(0.0,0.0,1.0));
#304=DIRECTION('',(0.0,-1.0,0.0));
#305=AXIS2_PLACEMENT_3D('',#302,#303,#304);
#306=PLANE('',#305);
#307=CARTESIAN_POINT('',(-69.0,-8.999999999999995,-10.000000000000007));
#308=DIRECTION('',(0.0,1.0,0.0));
#309=VECTOR('',#308,18.0);
#310=LINE('',#307,#309);
#311=EDGE_CURVE('',#275,#74,#310,.T.);
#312=ORIENTED_EDGE('',*,*,#311,.F.);
#313=ORIENTED_EDGE('',*,*,#297,.T.);
#314=CARTESIAN_POINT('',(-68.800000000000011,9.000000000000004,-10.000000000000002));
#315=DIRECTION('',(0.0,-1.0,0.0));
#316=VECTOR('',#315,18.000000000000004);
#317=LINE('',#314,#316);
#318=EDGE_CURVE('',#85,#285,#317,.T.);
#319=ORIENTED_EDGE('',*,*,#318,.F.);
#320=ORIENTED_EDGE('',*,*,#90,.F.);
#321=EDGE_LOOP('',(#312,#313,#319,#320));
#322=FACE_OUTER_BOUND('',#321,.T.);
#323=ADVANCED_FACE('',(#322),#306,.T.);
#324=CARTESIAN_POINT('',(-68.800000000000011,6.223662E-016,-3.734197E-015));
#325=DIRECTION('',(1.0,0.0,0.0));
#326=DIRECTION('',(0.0,0.0,-1.0));
#327=AXIS2_PLACEMENT_3D('',#324,#325,#326);
#328=PLANE('',#327);
#329=ORIENTED_EDGE('',*,*,#318,.T.);
#330=ORIENTED_EDGE('',*,*,#291,.T.);
#331=ORIENTED_EDGE('',*,*,#258,.T.);
#332=ORIENTED_EDGE('',*,*,#227,.T.);
#333=ORIENTED_EDGE('',*,*,#194,.T.);
#334=ORIENTED_EDGE('',*,*,#163,.T.);
#335=ORIENTED_EDGE('',*,*,#130,.T.);
#336=ORIENTED_EDGE('',*,*,#99,.T.);
#337=EDGE_LOOP('',(#329,#330,#331,#332,#333,#334,#335,#336));
#338=FACE_OUTER_BOUND('',#337,.T.);
#339=ADVANCED_FACE('',(#338),#328,.F.);
#340=CARTESIAN_POINT('',(69.0,8.999999999999995,-4.000000000000002));
#341=DIRECTION('',(-1.0,0.0,0.0));
#342=DIRECTION('',(0.0,0.0,1.0));
#343=AXIS2_PLACEMENT_3D('',#340,#341,#342);
#344=CYLINDRICAL_SURFACE('',#343,6.000000000000001);
#345=CARTESIAN_POINT('',(69.0,14.999999999999996,-4.000000000000004));
#346=VERTEX_POINT('',#345);
#347=CARTESIAN_POINT('',(69.0,9.000000000000004,-10.000000000000002));
#348=VERTEX_POINT('',#347);
#349=CARTESIAN_POINT('',(69.0,8.999999999999995,-4.000000000000002));
#350=DIRECTION('',(-1.0,0.0,0.0));
#351=DIRECTION('',(0.0,0.0,1.0));
#352=AXIS2_PLACEMENT_3D('',#349,#350,#351);
#353=CIRCLE('',#352,6.000000000000001);
#354=EDGE_CURVE('',#346,#348,#353,.T.);
#355=ORIENTED_EDGE('',*,*,#354,.F.);
#356=CARTESIAN_POINT('',(68.800000000000011,14.999999999999996,-4.000000000000004));
#357=VERTEX_POINT('',#356);
#358=CARTESIAN_POINT('',(69.0,14.999999999999996,-4.000000000000004));
#359=DIRECTION('',(-1.0,0.0,0.0));
#360=VECTOR('',#359,0.199999999999989);
#361=LINE('',#358,#360);
#362=EDGE_CURVE('',#346,#357,#361,.T.);
#363=ORIENTED_EDGE('',*,*,#362,.T.);
#364=CARTESIAN_POINT('',(68.800000000000011,9.000000000000004,-10.000000000000002));
#365=VERTEX_POINT('',#364);
#366=CARTESIAN_POINT('',(68.800000000000011,8.999999999999995,-4.000000000000002));
#367=DIRECTION('',(-1.0,0.0,0.0));
#368=DIRECTION('',(0.0,0.0,1.0));
#369=AXIS2_PLACEMENT_3D('',#366,#367,#368);
#370=CIRCLE('',#369,6.000000000000001);
#371=EDGE_CURVE('',#357,#365,#370,.T.);
#372=ORIENTED_EDGE('',*,*,#371,.T.);
#373=CARTESIAN_POINT('',(69.0,9.000000000000004,-10.000000000000002));
#374=DIRECTION('',(-1.0,0.0,0.0));
#375=VECTOR('',#374,0.199999999999989);
#376=LINE('',#373,#375);
#377=EDGE_CURVE('',#348,#365,#376,.T.);
#378=ORIENTED_EDGE('',*,*,#377,.F.);
#379=EDGE_LOOP('',(#355,#363,#372,#378));
#380=FACE_OUTER_BOUND('',#379,.T.);
#381=ADVANCED_FACE('',(#380),#344,.F.);
#382=CARTESIAN_POINT('',(69.0,15.0,3.999999999999999));
#383=DIRECTION('',(0.0,1.0,0.0));
#384=DIRECTION('',(0.0,0.0,-1.0));
#385=AXIS2_PLACEMENT_3D('',#382,#383,#384);
#386=PLANE('',#385);
#387=CARTESIAN_POINT('',(69.0,15.0,3.999999999999999));
#388=VERTEX_POINT('',#387);
#389=CARTESIAN_POINT('',(69.0,15.000000000000002,3.999999999999999));
#390=DIRECTION('',(0.0,0.0,-1.0));
#391=VECTOR('',#390,8.000000000000004);
#392=LINE('',#389,#391);
#393=EDGE_CURVE('',#388,#346,#392,.T.);
#394=ORIENTED_EDGE('',*,*,#393,.F.);
#395=CARTESIAN_POINT('',(68.800000000000011,15.0,3.999999999999999));
#396=VERTEX_POINT('',#395);
#397=CARTESIAN_POINT('',(69.0,15.0,3.999999999999999));
#398=DIRECTION('',(-1.0,0.0,0.0));
#399=VECTOR('',#398,0.199999999999989);
#400=LINE('',#397,#399);
#401=EDGE_CURVE('',#388,#396,#400,.T.);
#402=ORIENTED_EDGE('',*,*,#401,.T.);
#403=CARTESIAN_POINT('',(68.800000000000011,15.0,3.999999999999999));
#404=DIRECTION('',(0.0,0.0,-1.0));
#405=VECTOR('',#404,8.000000000000004);
#406=LINE('',#403,#405);
#407=EDGE_CURVE('',#396,#357,#406,.T.);
#408=ORIENTED_EDGE('',*,*,#407,.T.);
#409=ORIENTED_EDGE('',*,*,#362,.F.);
#410=EDGE_LOOP('',(#394,#402,#408,#409));
#411=FACE_OUTER_BOUND('',#410,.T.);
#412=ADVANCED_FACE('',(#411),#386,.F.);
#413=CARTESIAN_POINT('',(69.0,9.0,3.999999999999999));
#414=DIRECTION('',(-1.0,0.0,0.0));
#415=DIRECTION('',(0.0,-1.0,0.0));
#416=AXIS2_PLACEMENT_3D('',#413,#414,#415);
#417=CYLINDRICAL_SURFACE('',#416,6.000000000000001);
#418=CARTESIAN_POINT('',(69.0,9.0,10.0));
#419=VERTEX_POINT('',#418);
#420=CARTESIAN_POINT('',(69.0,9.0,3.999999999999999));
#421=DIRECTION('',(-1.0,0.0,0.0));
#422=DIRECTION('',(0.0,-1.0,0.0));
#423=AXIS2_PLACEMENT_3D('',#420,#421,#422);
#424=CIRCLE('',#423,6.000000000000001);
#425=EDGE_CURVE('',#419,#388,#424,.T.);
#426=ORIENTED_EDGE('',*,*,#425,.F.);
#427=CARTESIAN_POINT('',(68.800000000000011,9.0,9.999999999999998));
#428=VERTEX_POINT('',#427);
#429=CARTESIAN_POINT('',(69.0,9.0,10.0));
#430=DIRECTION('',(-1.0,0.0,0.0));
#431=VECTOR('',#430,0.199999999999989);
#432=LINE('',#429,#431);
#433=EDGE_CURVE('',#419,#428,#432,.T.);
#434=ORIENTED_EDGE('',*,*,#433,.T.);
#435=CARTESIAN_POINT('',(68.800000000000011,9.0,3.999999999999999));
#436=DIRECTION('',(-1.0,0.0,0.0));
#437=DIRECTION('',(0.0,-1.0,0.0));
#438=AXIS2_PLACEMENT_3D('',#435,#436,#437);
#439=CIRCLE('',#438,6.000000000000001);
#440=EDGE_CURVE('',#428,#396,#439,.T.);
#441=ORIENTED_EDGE('',*,*,#440,.T.);
#442=ORIENTED_EDGE('',*,*,#401,.F.);
#443=EDGE_LOOP('',(#426,#434,#441,#442));
#444=FACE_OUTER_BOUND('',#443,.T.);
#445=ADVANCED_FACE('',(#444),#417,.F.);
#446=CARTESIAN_POINT('',(69.0,-9.0,9.999999999999996));
#447=DIRECTION('',(0.0,0.0,1.0));
#448=DIRECTION('',(0.0,1.0,0.0));
#449=AXIS2_PLACEMENT_3D('',#446,#447,#448);
#450=PLANE('',#449);
#451=CARTESIAN_POINT('',(69.0,-9.0,9.999999999999996));
#452=VERTEX_POINT('',#451);
#453=CARTESIAN_POINT('',(69.0,-9.0,9.999999999999995));
#454=DIRECTION('',(0.0,1.0,0.0));
#455=VECTOR('',#454,17.999999999999996);
#456=LINE('',#453,#455);
#457=EDGE_CURVE('',#452,#419,#456,.T.);
#458=ORIENTED_EDGE('',*,*,#457,.F.);
#459=CARTESIAN_POINT('',(68.800000000000011,-9.0,9.999999999999996));
#460=VERTEX_POINT('',#459);
#461=CARTESIAN_POINT('',(69.0,-9.0,9.999999999999996));
#462=DIRECTION('',(-1.0,0.0,0.0));
#463=VECTOR('',#462,0.199999999999989);
#464=LINE('',#461,#463);
#465=EDGE_CURVE('',#452,#460,#464,.T.);
#466=ORIENTED_EDGE('',*,*,#465,.T.);
#467=CARTESIAN_POINT('',(68.800000000000011,-9.0,9.999999999999996));
#468=DIRECTION('',(0.0,1.0,0.0));
#469=VECTOR('',#468,18.0);
#470=LINE('',#467,#469);
#471=EDGE_CURVE('',#460,#428,#470,.T.);
#472=ORIENTED_EDGE('',*,*,#471,.T.);
#473=ORIENTED_EDGE('',*,*,#433,.F.);
#474=EDGE_LOOP('',(#458,#466,#472,#473));
#475=FACE_OUTER_BOUND('',#474,.T.);
#476=ADVANCED_FACE('',(#475),#450,.F.);
#477=CARTESIAN_POINT('',(69.0,-9.000000000000004,3.999999999999999));
#478=DIRECTION('',(-1.0,0.0,0.0));
#479=DIRECTION('',(0.0,0.0,-1.0));
#480=AXIS2_PLACEMENT_3D('',#477,#478,#479);
#481=CYLINDRICAL_SURFACE('',#480,5.999999999999996);
#482=CARTESIAN_POINT('',(69.0,-15.0,3.999999999999993));
#483=VERTEX_POINT('',#482);
#484=CARTESIAN_POINT('',(69.0,-9.000000000000004,3.999999999999999));
#485=DIRECTION('',(-1.0,0.0,0.0));
#486=DIRECTION('',(0.0,0.0,-1.0));
#487=AXIS2_PLACEMENT_3D('',#484,#485,#486);
#488=CIRCLE('',#487,5.999999999999996);
#489=EDGE_CURVE('',#483,#452,#488,.T.);
#490=ORIENTED_EDGE('',*,*,#489,.F.);
#491=CARTESIAN_POINT('',(68.800000000000011,-15.0,3.999999999999993));
#492=VERTEX_POINT('',#491);
#493=CARTESIAN_POINT('',(69.0,-15.0,3.999999999999993));
#494=DIRECTION('',(-1.0,0.0,0.0));
#495=VECTOR('',#494,0.199999999999989);
#496=LINE('',#493,#495);
#497=EDGE_CURVE('',#483,#492,#496,.T.);
#498=ORIENTED_EDGE('',*,*,#497,.T.);
#499=CARTESIAN_POINT('',(68.800000000000011,-9.000000000000004,3.999999999999999));
#500=DIRECTION('',(-1.0,0.0,0.0));
#501=DIRECTION('',(0.0,0.0,-1.0));
#502=AXIS2_PLACEMENT_3D('',#499,#500,#501);
#503=CIRCLE('',#502,5.999999999999996);
#504=EDGE_CURVE('',#492,#460,#503,.T.);
#505=ORIENTED_EDGE('',*,*,#504,.T.);
#506=ORIENTED_EDGE('',*,*,#465,.F.);
#507=EDGE_LOOP('',(#490,#498,#505,#506));
#508=FACE_OUTER_BOUND('',#507,.T.);
#509=ADVANCED_FACE('',(#508),#481,.F.);
#510=CARTESIAN_POINT('',(69.0,-14.999999999999996,-4.000000000000007));
#511=DIRECTION('',(0.0,-1.0,0.0));
#512=DIRECTION('',(0.0,0.0,1.0));
#513=AXIS2_PLACEMENT_3D('',#510,#511,#512);
#514=PLANE('',#513);
#515=CARTESIAN_POINT('',(69.0,-14.999999999999996,-4.000000000000007));
#516=VERTEX_POINT('',#515);
#517=CARTESIAN_POINT('',(69.0,-14.999999999999996,-4.000000000000007));
#518=DIRECTION('',(0.0,0.0,1.0));
#519=VECTOR('',#518,8.0);
#520=LINE('',#517,#519);
#521=EDGE_CURVE('',#516,#483,#520,.T.);
#522=ORIENTED_EDGE('',*,*,#521,.F.);
#523=CARTESIAN_POINT('',(68.800000000000011,-14.999999999999996,-4.000000000000007));
#524=VERTEX_POINT('',#523);
#525=CARTESIAN_POINT('',(69.0,-14.999999999999996,-4.000000000000007));
#526=DIRECTION('',(-1.0,0.0,0.0));
#527=VECTOR('',#526,0.199999999999989);
#528=LINE('',#525,#527);
#529=EDGE_CURVE('',#516,#524,#528,.T.);
#530=ORIENTED_EDGE('',*,*,#529,.T.);
#531=CARTESIAN_POINT('',(68.800000000000011,-14.999999999999996,-4.000000000000007));
#532=DIRECTION('',(0.0,0.0,1.0));
#533=VECTOR('',#532,7.999999999999999);
#534=LINE('',#531,#533);
#535=EDGE_CURVE('',#524,#492,#534,.T.);
#536=ORIENTED_EDGE('',*,*,#535,.T.);
#537=ORIENTED_EDGE('',*,*,#497,.F.);
#538=EDGE_LOOP('',(#522,#530,#536,#537));
#539=FACE_OUTER_BOUND('',#538,.T.);
#540=ADVANCED_FACE('',(#539),#514,.F.);
#541=CARTESIAN_POINT('',(69.0,-8.999999999999995,-4.000000000000005));
#542=DIRECTION('',(-1.0,0.0,0.0));
#543=DIRECTION('',(0.0,1.0,0.0));
#544=AXIS2_PLACEMENT_3D('',#541,#542,#543);
#545=CYLINDRICAL_SURFACE('',#544,6.000000000000002);
#546=CARTESIAN_POINT('',(69.0,-9.0,-10.000000000000009));
#547=VERTEX_POINT('',#546);
#548=CARTESIAN_POINT('',(69.0,-8.999999999999995,-4.000000000000005));
#549=DIRECTION('',(-1.0,0.0,0.0));
#550=DIRECTION('',(0.0,1.0,0.0));
#551=AXIS2_PLACEMENT_3D('',#548,#549,#550);
#552=CIRCLE('',#551,6.000000000000002);
#553=EDGE_CURVE('',#547,#516,#552,.T.);
#554=ORIENTED_EDGE('',*,*,#553,.F.);
#555=CARTESIAN_POINT('',(68.800000000000011,-9.0,-10.000000000000009));
#556=VERTEX_POINT('',#555);
#557=CARTESIAN_POINT('',(69.0,-9.0,-10.000000000000009));
#558=DIRECTION('',(-1.0,0.0,0.0));
#559=VECTOR('',#558,0.199999999999989);
#560=LINE('',#557,#559);
#561=EDGE_CURVE('',#547,#556,#560,.T.);
#562=ORIENTED_EDGE('',*,*,#561,.T.);
#563=CARTESIAN_POINT('',(68.800000000000011,-8.999999999999995,-4.000000000000005));
#564=DIRECTION('',(-1.0,0.0,0.0));
#565=DIRECTION('',(0.0,1.0,0.0));
#566=AXIS2_PLACEMENT_3D('',#563,#564,#565);
#567=CIRCLE('',#566,6.000000000000002);
#568=EDGE_CURVE('',#556,#524,#567,.T.);
#569=ORIENTED_EDGE('',*,*,#568,.T.);
#570=ORIENTED_EDGE('',*,*,#529,.F.);
#571=EDGE_LOOP('',(#554,#562,#569,#570));
#572=FACE_OUTER_BOUND('',#571,.T.);
#573=ADVANCED_FACE('',(#572),#545,.F.);
#574=CARTESIAN_POINT('',(69.0,9.000000000000004,-10.000000000000002));
#575=DIRECTION('',(0.0,0.0,-1.0));
#576=DIRECTION('',(0.0,-1.0,0.0));
#577=AXIS2_PLACEMENT_3D('',#574,#575,#576);
#578=PLANE('',#577);
#579=CARTESIAN_POINT('',(69.0,9.000000000000005,-10.000000000000002));
#580=DIRECTION('',(0.0,-1.0,0.0));
#581=VECTOR('',#580,18.000000000000007);
#582=LINE('',#579,#581);
#583=EDGE_CURVE('',#348,#547,#582,.T.);
#584=ORIENTED_EDGE('',*,*,#583,.F.);
#585=ORIENTED_EDGE('',*,*,#377,.T.);
#586=CARTESIAN_POINT('',(68.800000000000011,9.000000000000004,-10.000000000000002));
#587=DIRECTION('',(0.0,-1.0,0.0));
#588=VECTOR('',#587,18.000000000000004);
#589=LINE('',#586,#588);
#590=EDGE_CURVE('',#365,#556,#589,.T.);
#591=ORIENTED_EDGE('',*,*,#590,.T.);
#592=ORIENTED_EDGE('',*,*,#561,.F.);
#593=EDGE_LOOP('',(#584,#585,#591,#592));
#594=FACE_OUTER_BOUND('',#593,.T.);
#595=ADVANCED_FACE('',(#594),#578,.F.);
#596=CARTESIAN_POINT('',(68.800000000000011,6.223662E-016,-3.734197E-015));
#597=DIRECTION('',(1.0,0.0,0.0));
#598=DIRECTION('',(0.0,0.0,-1.0));
#599=AXIS2_PLACEMENT_3D('',#596,#597,#598);
#600=PLANE('',#599);
#601=ORIENTED_EDGE('',*,*,#590,.F.);
#602=ORIENTED_EDGE('',*,*,#371,.F.);
#603=ORIENTED_EDGE('',*,*,#407,.F.);
#604=ORIENTED_EDGE('',*,*,#440,.F.);
#605=ORIENTED_EDGE('',*,*,#471,.F.);
#606=ORIENTED_EDGE('',*,*,#504,.F.);
#607=ORIENTED_EDGE('',*,*,#535,.F.);
#608=ORIENTED_EDGE('',*,*,#568,.F.);
#609=EDGE_LOOP('',(#601,#602,#603,#604,#605,#606,#607,#608));
#610=FACE_OUTER_BOUND('',#609,.T.);
#611=ADVANCED_FACE('',(#610),#600,.T.);
#612=CARTESIAN_POINT('',(65.0,-21.0,11.0));
#613=DIRECTION('',(0.0,1.0,0.0));
#614=DIRECTION('',(0.0,0.0,1.0));
#615=AXIS2_PLACEMENT_3D('',#612,#613,#614);
#616=TOROIDAL_SURFACE('',#615,3.0,1.0);
#617=CARTESIAN_POINT('',(65.0,-21.0,15.0));
#618=VERTEX_POINT('',#617);
#619=CARTESIAN_POINT('',(65.0,-22.0,14.000000000000002));
#620=VERTEX_POINT('',#619);
#621=CARTESIAN_POINT('',(65.0,-21.0,14.000000000000002));
#622=DIRECTION('',(1.0,0.0,0.0));
#623=DIRECTION('',(0.0,0.0,1.0));
#624=AXIS2_PLACEMENT_3D('',#621,#622,#623);
#625=CIRCLE('',#624,0.999999999999999);
#626=EDGE_CURVE('',#618,#620,#625,.T.);
#627=ORIENTED_EDGE('',*,*,#626,.T.);
#628=CARTESIAN_POINT('',(68.0,-22.0,11.0));
#629=VERTEX_POINT('',#628);
#630=CARTESIAN_POINT('',(65.0,-22.0,11.0));
#631=DIRECTION('',(0.0,1.0,0.0));
#632=DIRECTION('',(0.707106781186548,0.0,0.707106781186547));
#633=AXIS2_PLACEMENT_3D('',#630,#631,#632);
#634=CIRCLE('',#633,3.0);
#635=EDGE_CURVE('',#620,#629,#634,.T.);
#636=ORIENTED_EDGE('',*,*,#635,.T.);
#637=CARTESIAN_POINT('',(69.0,-21.0,11.0));
#638=VERTEX_POINT('',#637);
#639=CARTESIAN_POINT('',(68.0,-21.0,11.0));
#640=DIRECTION('',(0.0,0.0,1.0));
#641=DIRECTION('',(0.0,-1.0,0.0));
#642=AXIS2_PLACEMENT_3D('',#639,#640,#641);
#643=CIRCLE('',#642,1.000000000000001);
#644=EDGE_CURVE('',#629,#638,#643,.T.);
#645=ORIENTED_EDGE('',*,*,#644,.T.);
#646=CARTESIAN_POINT('',(65.0,-21.0,11.0));
#647=DIRECTION('',(0.0,-1.0,0.0));
#648=DIRECTION('',(0.707106781186548,0.0,0.707106781186547));
#649=AXIS2_PLACEMENT_3D('',#646,#647,#648);
#650=CIRCLE('',#649,4.000000000000001);
#651=EDGE_CURVE('',#638,#618,#650,.T.);
#652=ORIENTED_EDGE('',*,*,#651,.T.);
#653=EDGE_LOOP('',(#627,#636,#645,#652));
#654=FACE_OUTER_BOUND('',#653,.T.);
#655=ADVANCED_FACE('',(#654),#616,.T.);
#656=CARTESIAN_POINT('',(68.0,-21.000000000000007,0.0));
#657=DIRECTION('',(0.0,0.0,1.0));
#658=DIRECTION('',(0.707106781186548,-0.707106781186548,0.0));
#659=AXIS2_PLACEMENT_3D('',#656,#657,#658);
#660=CYLINDRICAL_SURFACE('',#659,1.0);
#661=CARTESIAN_POINT('',(68.0,-22.0,-11.0));
#662=VERTEX_POINT('',#661);
#663=CARTESIAN_POINT('',(69.0,-21.000000000000007,-11.0));
#664=VERTEX_POINT('',#663);
#665=CARTESIAN_POINT('',(68.0,-21.000000000000007,-11.0));
#666=DIRECTION('',(0.0,0.0,1.0));
#667=DIRECTION('',(0.0,-1.0,0.0));
#668=AXIS2_PLACEMENT_3D('',#665,#666,#667);
#669=CIRCLE('',#668,0.999999999999996);
#670=EDGE_CURVE('',#662,#664,#669,.T.);
#671=ORIENTED_EDGE('',*,*,#670,.T.);
#672=CARTESIAN_POINT('',(69.0,-21.000000000000007,-11.0));
#673=DIRECTION('',(0.0,0.0,1.0));
#674=VECTOR('',#673,22.0);
#675=LINE('',#672,#674);
#676=EDGE_CURVE('',#664,#638,#675,.T.);
#677=ORIENTED_EDGE('',*,*,#676,.T.);
#678=ORIENTED_EDGE('',*,*,#644,.F.);
#679=CARTESIAN_POINT('',(68.0,-22.0,11.0));
#680=DIRECTION('',(0.0,0.0,-1.0));
#681=VECTOR('',#680,22.0);
#682=LINE('',#679,#681);
#683=EDGE_CURVE('',#629,#662,#682,.T.);
#684=ORIENTED_EDGE('',*,*,#683,.T.);
#685=EDGE_LOOP('',(#671,#677,#678,#684));
#686=FACE_OUTER_BOUND('',#685,.T.);
#687=ADVANCED_FACE('',(#686),#660,.T.);
#688=CARTESIAN_POINT('',(65.0,-21.0,-11.0));
#689=DIRECTION('',(0.0,1.0,0.0));
#690=DIRECTION('',(0.0,0.0,1.0));
#691=AXIS2_PLACEMENT_3D('',#688,#689,#690);
#692=TOROIDAL_SURFACE('',#691,3.0,1.0);
#693=CARTESIAN_POINT('',(65.0,-22.0,-14.000000000000002));
#694=VERTEX_POINT('',#693);
#695=CARTESIAN_POINT('',(65.0,-21.0,-15.0));
#696=VERTEX_POINT('',#695);
#697=CARTESIAN_POINT('',(65.0,-21.0,-14.000000000000002));
#698=DIRECTION('',(1.0,0.0,0.0));
#699=DIRECTION('',(0.0,-1.0,0.0));
#700=AXIS2_PLACEMENT_3D('',#697,#698,#699);
#701=CIRCLE('',#700,1.000000000000001);
#702=EDGE_CURVE('',#694,#696,#701,.T.);
#703=ORIENTED_EDGE('',*,*,#702,.T.);
#704=CARTESIAN_POINT('',(65.0,-21.0,-11.0));
#705=DIRECTION('',(0.0,-1.0,0.0));
#706=DIRECTION('',(0.707106781186548,0.0,-0.707106781186547));
#707=AXIS2_PLACEMENT_3D('',#704,#705,#706);
#708=CIRCLE('',#707,4.000000000000001);
#709=EDGE_CURVE('',#696,#664,#708,.T.);
#710=ORIENTED_EDGE('',*,*,#709,.T.);
#711=ORIENTED_EDGE('',*,*,#670,.F.);
#712=CARTESIAN_POINT('',(65.0,-22.0,-11.0));
#713=DIRECTION('',(0.0,1.0,0.0));
#714=DIRECTION('',(0.707106781186548,0.0,-0.707106781186547));
#715=AXIS2_PLACEMENT_3D('',#712,#713,#714);
#716=CIRCLE('',#715,3.0);
#717=EDGE_CURVE('',#662,#694,#716,.T.);
#718=ORIENTED_EDGE('',*,*,#717,.T.);
#719=EDGE_LOOP('',(#703,#710,#711,#718));
#720=FACE_OUTER_BOUND('',#719,.T.);
#721=ADVANCED_FACE('',(#720),#692,.T.);
#722=CARTESIAN_POINT('',(-34.5,-21.0,-14.0));
#723=DIRECTION('',(-1.0,0.0,0.0));
#724=DIRECTION('',(0.0,-0.707106781186549,-0.707106781186546));
#725=AXIS2_PLACEMENT_3D('',#722,#723,#724);
#726=CYLINDRICAL_SURFACE('',#725,1.0);
#727=CARTESIAN_POINT('',(-65.0,-22.0,-14.0));
#728=VERTEX_POINT('',#727);
#729=CARTESIAN_POINT('',(-65.0,-21.0,-15.0));
#730=VERTEX_POINT('',#729);
#731=CARTESIAN_POINT('',(-65.0,-21.0,-14.0));
#732=DIRECTION('',(1.0,0.0,0.0));
#733=DIRECTION('',(0.0,-1.0,0.0));
#734=AXIS2_PLACEMENT_3D('',#731,#732,#733);
#735=CIRCLE('',#734,1.000000000000001);
#736=EDGE_CURVE('',#728,#730,#735,.T.);
#737=ORIENTED_EDGE('',*,*,#736,.T.);
#738=CARTESIAN_POINT('',(-65.0,-21.0,-15.0));
#739=DIRECTION('',(1.0,0.0,0.0));
#740=VECTOR('',#739,130.0);
#741=LINE('',#738,#740);
#742=EDGE_CURVE('',#730,#696,#741,.T.);
#743=ORIENTED_EDGE('',*,*,#742,.T.);
#744=ORIENTED_EDGE('',*,*,#702,.F.);
#745=CARTESIAN_POINT('',(65.0,-22.0,-14.0));
#746=DIRECTION('',(-1.0,0.0,0.0));
#747=VECTOR('',#746,130.0);
#748=LINE('',#745,#747);
#749=EDGE_CURVE('',#694,#728,#748,.T.);
#750=ORIENTED_EDGE('',*,*,#749,.T.);
#751=EDGE_LOOP('',(#737,#743,#744,#750));
#752=FACE_OUTER_BOUND('',#751,.T.);
#753=ADVANCED_FACE('',(#752),#726,.T.);
#754=CARTESIAN_POINT('',(-65.0,-21.0,-11.0));
#755=DIRECTION('',(0.0,1.0,0.0));
#756=DIRECTION('',(0.0,0.0,1.0));
#757=AXIS2_PLACEMENT_3D('',#754,#755,#756);
#758=TOROIDAL_SURFACE('',#757,3.0,1.0);
#759=CARTESIAN_POINT('',(-68.0,-22.0,-11.0));
#760=VERTEX_POINT('',#759);
#761=CARTESIAN_POINT('',(-69.0,-21.0,-11.0));
#762=VERTEX_POINT('',#761);
#763=CARTESIAN_POINT('',(-68.0,-21.0,-11.0));
#764=DIRECTION('',(0.0,0.0,-1.0));
#765=DIRECTION('',(0.0,-1.0,0.0));
#766=AXIS2_PLACEMENT_3D('',#763,#764,#765);
#767=CIRCLE('',#766,1.000000000000001);
#768=EDGE_CURVE('',#760,#762,#767,.T.);
#769=ORIENTED_EDGE('',*,*,#768,.T.);
#770=CARTESIAN_POINT('',(-65.0,-21.0,-11.0));
#771=DIRECTION('',(0.0,-1.0,0.0));
#772=DIRECTION('',(-0.707106781186548,0.0,-0.707106781186547));
#773=AXIS2_PLACEMENT_3D('',#770,#771,#772);
#774=CIRCLE('',#773,4.000000000000001);
#775=EDGE_CURVE('',#762,#730,#774,.T.);
#776=ORIENTED_EDGE('',*,*,#775,.T.);
#777=ORIENTED_EDGE('',*,*,#736,.F.);
#778=CARTESIAN_POINT('',(-65.0,-22.0,-11.0));
#779=DIRECTION('',(0.0,1.0,0.0));
#780=DIRECTION('',(-0.707106781186548,0.0,-0.707106781186547));
#781=AXIS2_PLACEMENT_3D('',#778,#779,#780);
#782=CIRCLE('',#781,3.0);
#783=EDGE_CURVE('',#728,#760,#782,.T.);
#784=ORIENTED_EDGE('',*,*,#783,.T.);
#785=EDGE_LOOP('',(#769,#776,#777,#784));
#786=FACE_OUTER_BOUND('',#785,.T.);
#787=ADVANCED_FACE('',(#786),#758,.T.);
#788=CARTESIAN_POINT('',(-68.0,-21.000000000000007,0.0));
#789=DIRECTION('',(0.0,0.0,1.0));
#790=DIRECTION('',(-0.707106781186548,-0.707106781186548,0.0));
#791=AXIS2_PLACEMENT_3D('',#788,#789,#790);
#792=CYLINDRICAL_SURFACE('',#791,1.0);
#793=CARTESIAN_POINT('',(-68.0,-22.0,11.0));
#794=VERTEX_POINT('',#793);
#795=CARTESIAN_POINT('',(-69.0,-21.000000000000007,11.0));
#796=VERTEX_POINT('',#795);
#797=CARTESIAN_POINT('',(-68.0,-21.000000000000007,11.0));
#798=DIRECTION('',(0.0,0.0,-1.0));
#799=DIRECTION('',(0.0,-1.0,0.0));
#800=AXIS2_PLACEMENT_3D('',#797,#798,#799);
#801=CIRCLE('',#800,0.999999999999996);
#802=EDGE_CURVE('',#794,#796,#801,.T.);
#803=ORIENTED_EDGE('',*,*,#802,.T.);
#804=CARTESIAN_POINT('',(-69.0,-21.000000000000007,11.0));
#805=DIRECTION('',(0.0,0.0,-1.0));
#806=VECTOR('',#805,22.0);
#807=LINE('',#804,#806);
#808=EDGE_CURVE('',#796,#762,#807,.T.);
#809=ORIENTED_EDGE('',*,*,#808,.T.);
#810=ORIENTED_EDGE('',*,*,#768,.F.);
#811=CARTESIAN_POINT('',(-68.0,-22.0,-11.0));
#812=DIRECTION('',(0.0,0.0,1.0));
#813=VECTOR('',#812,22.0);
#814=LINE('',#811,#813);
#815=EDGE_CURVE('',#760,#794,#814,.T.);
#816=ORIENTED_EDGE('',*,*,#815,.T.);
#817=EDGE_LOOP('',(#803,#809,#810,#816));
#818=FACE_OUTER_BOUND('',#817,.T.);
#819=ADVANCED_FACE('',(#818),#792,.T.);
#820=CARTESIAN_POINT('',(-65.0,-21.0,11.0));
#821=DIRECTION('',(0.0,1.0,0.0));
#822=DIRECTION('',(0.0,0.0,1.0));
#823=AXIS2_PLACEMENT_3D('',#820,#821,#822);
#824=TOROIDAL_SURFACE('',#823,3.0,1.0);
#825=CARTESIAN_POINT('',(-65.0,-22.0,14.000000000000002));
#826=VERTEX_POINT('',#825);
#827=CARTESIAN_POINT('',(-65.0,-21.0,15.0));
#828=VERTEX_POINT('',#827);
#829=CARTESIAN_POINT('',(-65.0,-21.0,14.000000000000002));
#830=DIRECTION('',(-1.0,0.0,0.0));
#831=DIRECTION('',(0.0,-1.0,0.0));
#832=AXIS2_PLACEMENT_3D('',#829,#830,#831);
#833=CIRCLE('',#832,1.000000000000001);
#834=EDGE_CURVE('',#826,#828,#833,.T.);
#835=ORIENTED_EDGE('',*,*,#834,.T.);
#836=CARTESIAN_POINT('',(-65.0,-21.0,11.0));
#837=DIRECTION('',(0.0,-1.0,0.0));
#838=DIRECTION('',(-0.707106781186548,0.0,0.707106781186547));
#839=AXIS2_PLACEMENT_3D('',#836,#837,#838);
#840=CIRCLE('',#839,4.000000000000001);
#841=EDGE_CURVE('',#828,#796,#840,.T.);
#842=ORIENTED_EDGE('',*,*,#841,.T.);
#843=ORIENTED_EDGE('',*,*,#802,.F.);
#844=CARTESIAN_POINT('',(-65.0,-22.0,11.0));
#845=DIRECTION('',(0.0,1.0,0.0));
#846=DIRECTION('',(-0.707106781186548,0.0,0.707106781186547));
#847=AXIS2_PLACEMENT_3D('',#844,#845,#846);
#848=CIRCLE('',#847,3.0);
#849=EDGE_CURVE('',#794,#826,#848,.T.);
#850=ORIENTED_EDGE('',*,*,#849,.T.);
#851=EDGE_LOOP('',(#835,#842,#843,#850));
#852=FACE_OUTER_BOUND('',#851,.T.);
#853=ADVANCED_FACE('',(#852),#824,.T.);
#854=CARTESIAN_POINT('',(-34.5,-21.0,14.0));
#855=DIRECTION('',(1.0,0.0,0.0));
#856=DIRECTION('',(0.0,-0.707106781186549,0.707106781186546));
#857=AXIS2_PLACEMENT_3D('',#854,#855,#856);
#858=CYLINDRICAL_SURFACE('',#857,1.0);
#859=ORIENTED_EDGE('',*,*,#626,.F.);
#860=CARTESIAN_POINT('',(65.0,-21.0,15.0));
#861=DIRECTION('',(-1.0,0.0,0.0));
#862=VECTOR('',#861,130.0);
#863=LINE('',#860,#862);
#864=EDGE_CURVE('',#618,#828,#863,.T.);
#865=ORIENTED_EDGE('',*,*,#864,.T.);
#866=ORIENTED_EDGE('',*,*,#834,.F.);
#867=CARTESIAN_POINT('',(-65.0,-22.0,14.0));
#868=DIRECTION('',(1.0,0.0,0.0));
#869=VECTOR('',#868,130.0);
#870=LINE('',#867,#869);
#871=EDGE_CURVE('',#826,#620,#870,.T.);
#872=ORIENTED_EDGE('',*,*,#871,.T.);
#873=EDGE_LOOP('',(#859,#865,#866,#872));
#874=FACE_OUTER_BOUND('',#873,.T.);
#875=ADVANCED_FACE('',(#874),#858,.T.);
#876=CARTESIAN_POINT('',(-69.0,22.0,0.0));
#877=DIRECTION('',(-1.0,0.0,0.0));
#878=DIRECTION('',(0.0,-1.0,0.0));
#879=AXIS2_PLACEMENT_3D('',#876,#877,#878);
#880=PLANE('',#879);
#881=ORIENTED_EDGE('',*,*,#808,.F.);
#882=CARTESIAN_POINT('',(-69.0,21.0,11.0));
#883=VERTEX_POINT('',#882);
#884=CARTESIAN_POINT('',(-69.0,21.0,11.0));
#885=DIRECTION('',(0.0,-1.0,0.0));
#886=VECTOR('',#885,42.000000000000007);
#887=LINE('',#884,#886);
#888=EDGE_CURVE('',#883,#796,#887,.T.);
#889=ORIENTED_EDGE('',*,*,#888,.F.);
#890=CARTESIAN_POINT('',(-69.0,21.000000000000007,-11.0));
#891=VERTEX_POINT('',#890);
#892=CARTESIAN_POINT('',(-69.0,21.000000000000007,-11.0));
#893=DIRECTION('',(0.0,0.0,1.0));
#894=VECTOR('',#893,22.0);
#895=LINE('',#892,#894);
#896=EDGE_CURVE('',#891,#883,#895,.T.);
#897=ORIENTED_EDGE('',*,*,#896,.F.);
#898=CARTESIAN_POINT('',(-69.0,-21.0,-11.0));
#899=DIRECTION('',(0.0,1.0,0.0));
#900=VECTOR('',#899,42.0);
#901=LINE('',#898,#900);
#902=EDGE_CURVE('',#762,#891,#901,.T.);
#903=ORIENTED_EDGE('',*,*,#902,.F.);
#904=EDGE_LOOP('',(#881,#889,#897,#903));
#905=FACE_OUTER_BOUND('',#904,.T.);
#906=ORIENTED_EDGE('',*,*,#82,.T.);
#907=ORIENTED_EDGE('',*,*,#121,.T.);
#908=ORIENTED_EDGE('',*,*,#153,.T.);
#909=ORIENTED_EDGE('',*,*,#185,.T.);
#910=ORIENTED_EDGE('',*,*,#217,.T.);
#911=ORIENTED_EDGE('',*,*,#249,.T.);
#912=ORIENTED_EDGE('',*,*,#281,.T.);
#913=ORIENTED_EDGE('',*,*,#311,.T.);
#914=EDGE_LOOP('',(#906,#907,#908,#909,#910,#911,#912,#913));
#915=FACE_BOUND('',#914,.T.);
#916=ADVANCED_FACE('',(#905,#915),#880,.T.);
#917=CARTESIAN_POINT('',(-65.0,11.0,11.0));
#918=DIRECTION('',(0.0,-1.0,0.0));
#919=DIRECTION('',(-0.707106781186548,0.0,0.707106781186547));
#920=AXIS2_PLACEMENT_3D('',#917,#918,#919);
#921=CYLINDRICAL_SURFACE('',#920,4.000000000000001);
#922=ORIENTED_EDGE('',*,*,#841,.F.);
#923=CARTESIAN_POINT('',(-65.0,21.0,15.0));
#924=VERTEX_POINT('',#923);
#925=CARTESIAN_POINT('',(-65.0,-21.0,15.0));
#926=DIRECTION('',(0.0,1.0,0.0));
#927=VECTOR('',#926,42.0);
#928=LINE('',#925,#927);
#929=EDGE_CURVE('',#828,#924,#928,.T.);
#930=ORIENTED_EDGE('',*,*,#929,.T.);
#931=CARTESIAN_POINT('',(-65.0,21.0,11.0));
#932=DIRECTION('',(0.0,1.0,0.0));
#933=DIRECTION('',(-0.707106781186548,0.0,0.707106781186547));
#934=AXIS2_PLACEMENT_3D('',#931,#932,#933);
#935=CIRCLE('',#934,4.000000000000001);
#936=EDGE_CURVE('',#883,#924,#935,.T.);
#937=ORIENTED_EDGE('',*,*,#936,.F.);
#938=ORIENTED_EDGE('',*,*,#888,.T.);
#939=EDGE_LOOP('',(#922,#930,#937,#938));
#940=FACE_OUTER_BOUND('',#939,.T.);
#941=ADVANCED_FACE('',(#940),#921,.T.);
#942=CARTESIAN_POINT('',(0.0,0.0,15.0));
#943=DIRECTION('',(0.0,0.0,1.0));
#944=DIRECTION('',(1.0,0.0,0.0));
#945=AXIS2_PLACEMENT_3D('',#942,#943,#944);
#946=PLANE('',#945);
#947=ORIENTED_EDGE('',*,*,#864,.F.);
#948=CARTESIAN_POINT('',(65.0,21.0,15.0));
#949=VERTEX_POINT('',#948);
#950=CARTESIAN_POINT('',(65.0,21.0,15.0));
#951=DIRECTION('',(0.0,-1.0,0.0));
#952=VECTOR('',#951,42.0);
#953=LINE('',#950,#952);
#954=EDGE_CURVE('',#949,#618,#953,.T.);
#955=ORIENTED_EDGE('',*,*,#954,.F.);
#956=CARTESIAN_POINT('',(-65.0,21.0,15.0));
#957=DIRECTION('',(1.0,0.0,0.0));
#958=VECTOR('',#957,130.0);
#959=LINE('',#956,#958);
#960=EDGE_CURVE('',#924,#949,#959,.T.);
#961=ORIENTED_EDGE('',*,*,#960,.F.);
#962=ORIENTED_EDGE('',*,*,#929,.F.);
#963=EDGE_LOOP('',(#947,#955,#961,#962));
#964=FACE_OUTER_BOUND('',#963,.T.);
#965=ADVANCED_FACE('',(#964),#946,.T.);
#966=CARTESIAN_POINT('',(65.0,-11.0,11.0));
#967=DIRECTION('',(0.0,1.0,0.0));
#968=DIRECTION('',(0.707106781186548,0.0,0.707106781186547));
#969=AXIS2_PLACEMENT_3D('',#966,#967,#968);
#970=CYLINDRICAL_SURFACE('',#969,4.000000000000001);
#971=ORIENTED_EDGE('',*,*,#651,.F.);
#972=CARTESIAN_POINT('',(69.0,21.000000000000007,11.0));
#973=VERTEX_POINT('',#972);
#974=CARTESIAN_POINT('',(69.0,-21.0,11.0));
#975=DIRECTION('',(0.0,1.0,0.0));
#976=VECTOR('',#975,42.000000000000007);
#977=LINE('',#974,#976);
#978=EDGE_CURVE('',#638,#973,#977,.T.);
#979=ORIENTED_EDGE('',*,*,#978,.T.);
#980=CARTESIAN_POINT('',(65.0,21.0,11.0));
#981=DIRECTION('',(0.0,1.0,0.0));
#982=DIRECTION('',(0.707106781186548,0.0,0.707106781186547));
#983=AXIS2_PLACEMENT_3D('',#980,#981,#982);
#984=CIRCLE('',#983,4.000000000000001);
#985=EDGE_CURVE('',#949,#973,#984,.T.);
#986=ORIENTED_EDGE('',*,*,#985,.F.);
#987=ORIENTED_EDGE('',*,*,#954,.T.);
#988=EDGE_LOOP('',(#971,#979,#986,#987));
#989=FACE_OUTER_BOUND('',#988,.T.);
#990=ADVANCED_FACE('',(#989),#970,.T.);
#991=CARTESIAN_POINT('',(-69.0,-22.0,0.0));
#992=DIRECTION('',(0.0,-1.0,0.0));
#993=DIRECTION('',(1.0,0.0,0.0));
#994=AXIS2_PLACEMENT_3D('',#991,#992,#993);
#995=PLANE('',#994);
#996=ORIENTED_EDGE('',*,*,#635,.F.);
#997=ORIENTED_EDGE('',*,*,#871,.F.);
#998=ORIENTED_EDGE('',*,*,#849,.F.);
#999=ORIENTED_EDGE('',*,*,#815,.F.);
#1000=ORIENTED_EDGE('',*,*,#783,.F.);
#1001=ORIENTED_EDGE('',*,*,#749,.F.);
#1002=ORIENTED_EDGE('',*,*,#717,.F.);
#1003=ORIENTED_EDGE('',*,*,#683,.F.);
#1004=EDGE_LOOP('',(#996,#997,#998,#999,#1000,#1001,#1002,#1003));
#1005=FACE_OUTER_BOUND('',#1004,.T.);
#1006=ADVANCED_FACE('',(#1005),#995,.T.);
#1007=CARTESIAN_POINT('',(-65.0,21.0,11.0));
#1008=DIRECTION('',(0.0,-1.0,0.0));
#1009=DIRECTION('',(0.0,0.0,-1.0));
#1010=AXIS2_PLACEMENT_3D('',#1007,#1008,#1009);
#1011=TOROIDAL_SURFACE('',#1010,3.0,1.0);
#1012=CARTESIAN_POINT('',(-65.0,22.0,14.000000000000002));
#1013=VERTEX_POINT('',#1012);
#1014=CARTESIAN_POINT('',(-65.0,21.0,14.000000000000002));
#1015=DIRECTION('',(-1.0,0.0,0.0));
#1016=DIRECTION('',(0.0,0.0,1.0));
#1017=AXIS2_PLACEMENT_3D('',#1014,#1015,#1016);
#1018=CIRCLE('',#1017,0.999999999999999);
#1019=EDGE_CURVE('',#924,#1013,#1018,.T.);
#1020=ORIENTED_EDGE('',*,*,#1019,.T.);
#1021=CARTESIAN_POINT('',(-68.0,22.0,11.0));
#1022=VERTEX_POINT('',#1021);
#1023=CARTESIAN_POINT('',(-65.0,22.0,11.0));
#1024=DIRECTION('',(0.0,-1.0,0.0));
#1025=DIRECTION('',(-0.707106781186548,0.0,0.707106781186547));
#1026=AXIS2_PLACEMENT_3D('',#1023,#1024,#1025);
#1027=CIRCLE('',#1026,3.0);
#1028=EDGE_CURVE('',#1013,#1022,#1027,.T.);
#1029=ORIENTED_EDGE('',*,*,#1028,.T.);
#1030=CARTESIAN_POINT('',(-68.0,21.0,11.0));
#1031=DIRECTION('',(0.0,0.0,1.0));
#1032=DIRECTION('',(0.0,1.0,0.0));
#1033=AXIS2_PLACEMENT_3D('',#1030,#1031,#1032);
#1034=CIRCLE('',#1033,1.000000000000001);
#1035=EDGE_CURVE('',#1022,#883,#1034,.T.);
#1036=ORIENTED_EDGE('',*,*,#1035,.T.);
#1037=ORIENTED_EDGE('',*,*,#936,.T.);
#1038=EDGE_LOOP('',(#1020,#1029,#1036,#1037));
#1039=FACE_OUTER_BOUND('',#1038,.T.);
#1040=ADVANCED_FACE('',(#1039),#1011,.T.);
#1041=CARTESIAN_POINT('',(-68.0,21.000000000000007,0.0));
#1042=DIRECTION('',(0.0,0.0,1.0));
#1043=DIRECTION('',(-0.707106781186548,0.707106781186548,0.0));
#1044=AXIS2_PLACEMENT_3D('',#1041,#1042,#1043);
#1045=CYLINDRICAL_SURFACE('',#1044,1.0);
#1046=CARTESIAN_POINT('',(-68.0,22.0,-11.0));
#1047=VERTEX_POINT('',#1046);
#1048=CARTESIAN_POINT('',(-68.0,21.000000000000007,-11.0));
#1049=DIRECTION('',(0.0,0.0,1.0));
#1050=DIRECTION('',(0.0,1.0,0.0));
#1051=AXIS2_PLACEMENT_3D('',#1048,#1049,#1050);
#1052=CIRCLE('',#1051,0.999999999999996);
#1053=EDGE_CURVE('',#1047,#891,#1052,.T.);
#1054=ORIENTED_EDGE('',*,*,#1053,.T.);
#1055=ORIENTED_EDGE('',*,*,#896,.T.);
#1056=ORIENTED_EDGE('',*,*,#1035,.F.);
#1057=CARTESIAN_POINT('',(-68.0,22.0,11.0));
#1058=DIRECTION('',(0.0,0.0,-1.0));
#1059=VECTOR('',#1058,22.0);
#1060=LINE('',#1057,#1059);
#1061=EDGE_CURVE('',#1022,#1047,#1060,.T.);
#1062=ORIENTED_EDGE('',*,*,#1061,.T.);
#1063=EDGE_LOOP('',(#1054,#1055,#1056,#1062));
#1064=FACE_OUTER_BOUND('',#1063,.T.);
#1065=ADVANCED_FACE('',(#1064),#1045,.T.);
#1066=CARTESIAN_POINT('',(-65.0,21.0,-11.0));
#1067=DIRECTION('',(0.0,-1.0,0.0));
#1068=DIRECTION('',(0.0,0.0,-1.0));
#1069=AXIS2_PLACEMENT_3D('',#1066,#1067,#1068);
#1070=TOROIDAL_SURFACE('',#1069,3.0,1.0);
#1071=CARTESIAN_POINT('',(-65.0,22.0,-14.000000000000002));
#1072=VERTEX_POINT('',#1071);
#1073=CARTESIAN_POINT('',(-65.0,21.0,-15.0));
#1074=VERTEX_POINT('',#1073);
#1075=CARTESIAN_POINT('',(-65.0,21.0,-14.000000000000002));
#1076=DIRECTION('',(-1.0,0.0,0.0));
#1077=DIRECTION('',(0.0,1.0,0.0));
#1078=AXIS2_PLACEMENT_3D('',#1075,#1076,#1077);
#1079=CIRCLE('',#1078,1.000000000000001);
#1080=EDGE_CURVE('',#1072,#1074,#1079,.T.);
#1081=ORIENTED_EDGE('',*,*,#1080,.T.);
#1082=CARTESIAN_POINT('',(-65.0,21.0,-11.0));
#1083=DIRECTION('',(0.0,1.0,0.0));
#1084=DIRECTION('',(-0.707106781186548,0.0,-0.707106781186547));
#1085=AXIS2_PLACEMENT_3D('',#1082,#1083,#1084);
#1086=CIRCLE('',#1085,4.000000000000001);
#1087=EDGE_CURVE('',#1074,#891,#1086,.T.);
#1088=ORIENTED_EDGE('',*,*,#1087,.T.);
#1089=ORIENTED_EDGE('',*,*,#1053,.F.);
#1090=CARTESIAN_POINT('',(-65.0,22.0,-11.0));
#1091=DIRECTION('',(0.0,-1.0,0.0));
#1092=DIRECTION('',(-0.707106781186548,0.0,-0.707106781186547));
#1093=AXIS2_PLACEMENT_3D('',#1090,#1091,#1092);
#1094=CIRCLE('',#1093,3.0);
#1095=EDGE_CURVE('',#1047,#1072,#1094,.T.);
#1096=ORIENTED_EDGE('',*,*,#1095,.T.);
#1097=EDGE_LOOP('',(#1081,#1088,#1089,#1096));
#1098=FACE_OUTER_BOUND('',#1097,.T.);
#1099=ADVANCED_FACE('',(#1098),#1070,.T.);
#1100=CARTESIAN_POINT('',(34.5,21.0,-14.0));
#1101=DIRECTION('',(1.0,0.0,0.0));
#1102=DIRECTION('',(0.0,0.707106781186549,-0.707106781186546));
#1103=AXIS2_PLACEMENT_3D('',#1100,#1101,#1102);
#1104=CYLINDRICAL_SURFACE('',#1103,1.0);
#1105=CARTESIAN_POINT('',(65.0,22.0,-14.0));
#1106=VERTEX_POINT('',#1105);
#1107=CARTESIAN_POINT('',(65.0,21.0,-15.0));
#1108=VERTEX_POINT('',#1107);
#1109=CARTESIAN_POINT('',(65.0,21.0,-14.0));
#1110=DIRECTION('',(-1.0,0.0,0.0));
#1111=DIRECTION('',(0.0,1.0,0.0));
#1112=AXIS2_PLACEMENT_3D('',#1109,#1110,#1111);
#1113=CIRCLE('',#1112,1.000000000000001);
#1114=EDGE_CURVE('',#1106,#1108,#1113,.T.);
#1115=ORIENTED_EDGE('',*,*,#1114,.T.);
#1116=CARTESIAN_POINT('',(65.0,21.0,-15.0));
#1117=DIRECTION('',(-1.0,0.0,0.0));
#1118=VECTOR('',#1117,130.0);
#1119=LINE('',#1116,#1118);
#1120=EDGE_CURVE('',#1108,#1074,#1119,.T.);
#1121=ORIENTED_EDGE('',*,*,#1120,.T.);
#1122=ORIENTED_EDGE('',*,*,#1080,.F.);
#1123=CARTESIAN_POINT('',(-65.0,22.0,-14.0));
#1124=DIRECTION('',(1.0,0.0,0.0));
#1125=VECTOR('',#1124,130.0);
#1126=LINE('',#1123,#1125);
#1127=EDGE_CURVE('',#1072,#1106,#1126,.T.);
#1128=ORIENTED_EDGE('',*,*,#1127,.T.);
#1129=EDGE_LOOP('',(#1115,#1121,#1122,#1128));
#1130=FACE_OUTER_BOUND('',#1129,.T.);
#1131=ADVANCED_FACE('',(#1130),#1104,.T.);
#1132=CARTESIAN_POINT('',(65.0,21.0,-11.0));
#1133=DIRECTION('',(0.0,-1.0,0.0));
#1134=DIRECTION('',(0.0,0.0,-1.0));
#1135=AXIS2_PLACEMENT_3D('',#1132,#1133,#1134);
#1136=TOROIDAL_SURFACE('',#1135,3.0,1.0);
#1137=CARTESIAN_POINT('',(68.0,22.0,-11.0));
#1138=VERTEX_POINT('',#1137);
#1139=CARTESIAN_POINT('',(69.0,21.0,-11.0));
#1140=VERTEX_POINT('',#1139);
#1141=CARTESIAN_POINT('',(68.0,21.0,-11.0));
#1142=DIRECTION('',(0.0,0.0,-1.0));
#1143=DIRECTION('',(0.0,1.0,0.0));
#1144=AXIS2_PLACEMENT_3D('',#1141,#1142,#1143);
#1145=CIRCLE('',#1144,1.000000000000001);
#1146=EDGE_CURVE('',#1138,#1140,#1145,.T.);
#1147=ORIENTED_EDGE('',*,*,#1146,.T.);
#1148=CARTESIAN_POINT('',(65.0,21.0,-11.0));
#1149=DIRECTION('',(0.0,1.0,0.0));
#1150=DIRECTION('',(0.707106781186548,0.0,-0.707106781186547));
#1151=AXIS2_PLACEMENT_3D('',#1148,#1149,#1150);
#1152=CIRCLE('',#1151,4.000000000000001);
#1153=EDGE_CURVE('',#1140,#1108,#1152,.T.);
#1154=ORIENTED_EDGE('',*,*,#1153,.T.);
#1155=ORIENTED_EDGE('',*,*,#1114,.F.);
#1156=CARTESIAN_POINT('',(65.0,22.0,-11.0));
#1157=DIRECTION('',(0.0,-1.0,0.0));
#1158=DIRECTION('',(0.707106781186548,0.0,-0.707106781186547));
#1159=AXIS2_PLACEMENT_3D('',#1156,#1157,#1158);
#1160=CIRCLE('',#1159,3.0);
#1161=EDGE_CURVE('',#1106,#1138,#1160,.T.);
#1162=ORIENTED_EDGE('',*,*,#1161,.T.);
#1163=EDGE_LOOP('',(#1147,#1154,#1155,#1162));
#1164=FACE_OUTER_BOUND('',#1163,.T.);
#1165=ADVANCED_FACE('',(#1164),#1136,.T.);
#1166=CARTESIAN_POINT('',(68.0,21.000000000000007,0.0));
#1167=DIRECTION('',(0.0,0.0,-1.0));
#1168=DIRECTION('',(0.707106781186548,0.707106781186548,0.0));
#1169=AXIS2_PLACEMENT_3D('',#1166,#1167,#1168);
#1170=CYLINDRICAL_SURFACE('',#1169,1.0);
#1171=CARTESIAN_POINT('',(68.0,22.0,11.0));
#1172=VERTEX_POINT('',#1171);
#1173=CARTESIAN_POINT('',(68.0,21.000000000000007,11.0));
#1174=DIRECTION('',(0.0,0.0,-1.0));
#1175=DIRECTION('',(0.0,1.0,0.0));
#1176=AXIS2_PLACEMENT_3D('',#1173,#1174,#1175);
#1177=CIRCLE('',#1176,0.999999999999996);
#1178=EDGE_CURVE('',#1172,#973,#1177,.T.);
#1179=ORIENTED_EDGE('',*,*,#1178,.T.);
#1180=CARTESIAN_POINT('',(69.0,21.000000000000007,11.0));
#1181=DIRECTION('',(0.0,0.0,-1.0));
#1182=VECTOR('',#1181,22.0);
#1183=LINE('',#1180,#1182);
#1184=EDGE_CURVE('',#973,#1140,#1183,.T.);
#1185=ORIENTED_EDGE('',*,*,#1184,.T.);
#1186=ORIENTED_EDGE('',*,*,#1146,.F.);
#1187=CARTESIAN_POINT('',(68.0,22.0,-11.0));
#1188=DIRECTION('',(0.0,0.0,1.0));
#1189=VECTOR('',#1188,22.0);
#1190=LINE('',#1187,#1189);
#1191=EDGE_CURVE('',#1138,#1172,#1190,.T.);
#1192=ORIENTED_EDGE('',*,*,#1191,.T.);
#1193=EDGE_LOOP('',(#1179,#1185,#1186,#1192));
#1194=FACE_OUTER_BOUND('',#1193,.T.);
#1195=ADVANCED_FACE('',(#1194),#1170,.T.);
#1196=CARTESIAN_POINT('',(65.0,21.0,11.0));
#1197=DIRECTION('',(0.0,-1.0,0.0));
#1198=DIRECTION('',(0.0,0.0,-1.0));
#1199=AXIS2_PLACEMENT_3D('',#1196,#1197,#1198);
#1200=TOROIDAL_SURFACE('',#1199,3.0,1.0);
#1201=CARTESIAN_POINT('',(65.0,22.0,14.000000000000002));
#1202=VERTEX_POINT('',#1201);
#1203=CARTESIAN_POINT('',(65.0,21.0,14.000000000000002));
#1204=DIRECTION('',(1.0,0.0,0.0));
#1205=DIRECTION('',(0.0,1.0,0.0));
#1206=AXIS2_PLACEMENT_3D('',#1203,#1204,#1205);
#1207=CIRCLE('',#1206,1.000000000000001);
#1208=EDGE_CURVE('',#1202,#949,#1207,.T.);
#1209=ORIENTED_EDGE('',*,*,#1208,.T.);
#1210=ORIENTED_EDGE('',*,*,#985,.T.);
#1211=ORIENTED_EDGE('',*,*,#1178,.F.);
#1212=CARTESIAN_POINT('',(65.0,22.0,11.0));
#1213=DIRECTION('',(0.0,-1.0,0.0));
#1214=DIRECTION('',(0.707106781186548,0.0,0.707106781186547));
#1215=AXIS2_PLACEMENT_3D('',#1212,#1213,#1214);
#1216=CIRCLE('',#1215,3.0);
#1217=EDGE_CURVE('',#1172,#1202,#1216,.T.);
#1218=ORIENTED_EDGE('',*,*,#1217,.T.);
#1219=EDGE_LOOP('',(#1209,#1210,#1211,#1218));
#1220=FACE_OUTER_BOUND('',#1219,.T.);
#1221=ADVANCED_FACE('',(#1220),#1200,.T.);
#1222=CARTESIAN_POINT('',(34.5,21.0,14.0));
#1223=DIRECTION('',(-1.0,0.0,0.0));
#1224=DIRECTION('',(0.0,0.707106781186549,0.707106781186546));
#1225=AXIS2_PLACEMENT_3D('',#1222,#1223,#1224);
#1226=CYLINDRICAL_SURFACE('',#1225,1.0);
#1227=ORIENTED_EDGE('',*,*,#1019,.F.);
#1228=ORIENTED_EDGE('',*,*,#960,.T.);
#1229=ORIENTED_EDGE('',*,*,#1208,.F.);
#1230=CARTESIAN_POINT('',(65.0,22.0,14.0));
#1231=DIRECTION('',(-1.0,0.0,0.0));
#1232=VECTOR('',#1231,130.0);
#1233=LINE('',#1230,#1232);
#1234=EDGE_CURVE('',#1202,#1013,#1233,.T.);
#1235=ORIENTED_EDGE('',*,*,#1234,.T.);
#1236=EDGE_LOOP('',(#1227,#1228,#1229,#1235));
#1237=FACE_OUTER_BOUND('',#1236,.T.);
#1238=ADVANCED_FACE('',(#1237),#1226,.T.);
#1239=CARTESIAN_POINT('',(69.0,-22.0,0.0));
#1240=DIRECTION('',(1.0,0.0,0.0));
#1241=DIRECTION('',(0.0,1.0,0.0));
#1242=AXIS2_PLACEMENT_3D('',#1239,#1240,#1241);
#1243=PLANE('',#1242);
#1244=ORIENTED_EDGE('',*,*,#676,.F.);
#1245=CARTESIAN_POINT('',(69.0,21.0,-11.0));
#1246=DIRECTION('',(0.0,-1.0,0.0));
#1247=VECTOR('',#1246,42.0);
#1248=LINE('',#1245,#1247);
#1249=EDGE_CURVE('',#1140,#664,#1248,.T.);
#1250=ORIENTED_EDGE('',*,*,#1249,.F.);
#1251=ORIENTED_EDGE('',*,*,#1184,.F.);
#1252=ORIENTED_EDGE('',*,*,#978,.F.);
#1253=EDGE_LOOP('',(#1244,#1250,#1251,#1252));
#1254=FACE_OUTER_BOUND('',#1253,.T.);
#1255=ORIENTED_EDGE('',*,*,#354,.T.);
#1256=ORIENTED_EDGE('',*,*,#583,.T.);
#1257=ORIENTED_EDGE('',*,*,#553,.T.);
#1258=ORIENTED_EDGE('',*,*,#521,.T.);
#1259=ORIENTED_EDGE('',*,*,#489,.T.);
#1260=ORIENTED_EDGE('',*,*,#457,.T.);
#1261=ORIENTED_EDGE('',*,*,#425,.T.);
#1262=ORIENTED_EDGE('',*,*,#393,.T.);
#1263=EDGE_LOOP('',(#1255,#1256,#1257,#1258,#1259,#1260,#1261,#1262));
#1264=FACE_BOUND('',#1263,.T.);
#1265=ADVANCED_FACE('',(#1254,#1264),#1243,.T.);
#1266=CARTESIAN_POINT('',(69.0,22.0,0.0));
#1267=DIRECTION('',(0.0,1.0,0.0));
#1268=DIRECTION('',(-1.0,0.0,0.0));
#1269=AXIS2_PLACEMENT_3D('',#1266,#1267,#1268);
#1270=PLANE('',#1269);
#1271=ORIENTED_EDGE('',*,*,#1028,.F.);
#1272=ORIENTED_EDGE('',*,*,#1234,.F.);
#1273=ORIENTED_EDGE('',*,*,#1217,.F.);
#1274=ORIENTED_EDGE('',*,*,#1191,.F.);
#1275=ORIENTED_EDGE('',*,*,#1161,.F.);
#1276=ORIENTED_EDGE('',*,*,#1127,.F.);
#1277=ORIENTED_EDGE('',*,*,#1095,.F.);
#1278=ORIENTED_EDGE('',*,*,#1061,.F.);
#1279=EDGE_LOOP('',(#1271,#1272,#1273,#1274,#1275,#1276,#1277,#1278));
#1280=FACE_OUTER_BOUND('',#1279,.T.);
#1281=ADVANCED_FACE('',(#1280),#1270,.T.);
#1282=CARTESIAN_POINT('',(-65.0,11.0,-11.0));
#1283=DIRECTION('',(0.0,1.0,0.0));
#1284=DIRECTION('',(-0.707106781186548,0.0,-0.707106781186547));
#1285=AXIS2_PLACEMENT_3D('',#1282,#1283,#1284);
#1286=CYLINDRICAL_SURFACE('',#1285,4.000000000000001);
#1287=ORIENTED_EDGE('',*,*,#775,.F.);
#1288=ORIENTED_EDGE('',*,*,#902,.T.);
#1289=ORIENTED_EDGE('',*,*,#1087,.F.);
#1290=CARTESIAN_POINT('',(-65.0,21.0,-15.0));
#1291=DIRECTION('',(0.0,-1.0,0.0));
#1292=VECTOR('',#1291,42.0);
#1293=LINE('',#1290,#1292);
#1294=EDGE_CURVE('',#1074,#730,#1293,.T.);
#1295=ORIENTED_EDGE('',*,*,#1294,.T.);
#1296=EDGE_LOOP('',(#1287,#1288,#1289,#1295));
#1297=FACE_OUTER_BOUND('',#1296,.T.);
#1298=ADVANCED_FACE('',(#1297),#1286,.T.);
#1299=CARTESIAN_POINT('',(0.0,0.0,-15.0));
#1300=DIRECTION('',(0.0,0.0,1.0));
#1301=DIRECTION('',(1.0,0.0,0.0));
#1302=AXIS2_PLACEMENT_3D('',#1299,#1300,#1301);
#1303=PLANE('',#1302);
#1304=ORIENTED_EDGE('',*,*,#742,.F.);
#1305=ORIENTED_EDGE('',*,*,#1294,.F.);
#1306=ORIENTED_EDGE('',*,*,#1120,.F.);
#1307=CARTESIAN_POINT('',(65.0,-21.0,-15.0));
#1308=DIRECTION('',(0.0,1.0,0.0));
#1309=VECTOR('',#1308,42.0);
#1310=LINE('',#1307,#1309);
#1311=EDGE_CURVE('',#696,#1108,#1310,.T.);
#1312=ORIENTED_EDGE('',*,*,#1311,.F.);
#1313=EDGE_LOOP('',(#1304,#1305,#1306,#1312));
#1314=FACE_OUTER_BOUND('',#1313,.T.);
#1315=ADVANCED_FACE('',(#1314),#1303,.F.);
#1316=CARTESIAN_POINT('',(65.0,-11.0,-11.0));
#1317=DIRECTION('',(0.0,-1.0,0.0));
#1318=DIRECTION('',(0.707106781186548,0.0,-0.707106781186547));
#1319=AXIS2_PLACEMENT_3D('',#1316,#1317,#1318);
#1320=CYLINDRICAL_SURFACE('',#1319,4.000000000000001);
#1321=ORIENTED_EDGE('',*,*,#709,.F.);
#1322=ORIENTED_EDGE('',*,*,#1311,.T.);
#1323=ORIENTED_EDGE('',*,*,#1153,.F.);
#1324=ORIENTED_EDGE('',*,*,#1249,.T.);
#1325=EDGE_LOOP('',(#1321,#1322,#1323,#1324));
#1326=FACE_OUTER_BOUND('',#1325,.T.);
#1327=ADVANCED_FACE('',(#1326),#1320,.T.);
#1328=CLOSED_SHELL('',(#109,#140,#173,#204,#237,#268,#301,#323,#339,#381,#412,#445,#476,#509,#540,#573,#595,#611,#655,#687,#721,#753,#787,#819,#853,#875,#916,#941,#965,#990,#1006,#1040,#1065,#1099,#1131,#1165,#1195,#1221,#1238,#1265,#1281,#1298,#1315,#1327));
#1329=MANIFOLD_SOLID_BREP('Volumenk\S\vrper1',#1328);
#1330=COLOUR_RGB('',1.0,1.0,1.0);
#1331=FILL_AREA_STYLE_COLOUR('',#1330);
#1332=FILL_AREA_STYLE('',(#1331));
#1333=SURFACE_STYLE_FILL_AREA(#1332);
#1334=SURFACE_SIDE_STYLE('',(#1333));
#1335=SURFACE_STYLE_USAGE(.BOTH.,#1334);
#1336=PRESENTATION_STYLE_ASSIGNMENT((#1335));
#1337=STYLED_ITEM('',(#1336),#339);
#1338=STYLED_ITEM('',(#1336),#611);
#1339=MECHANICAL_DESIGN_GEOMETRIC_PRESENTATION_REPRESENTATION('',(#1337,#1338,#1347),#67);
#1340=COLOUR_RGB('Blau - Wandfarbe - gl\X2\FFFD\X0\nzend',0.094117648899555,0.14509804546833,0.972549021244049);
#1341=FILL_AREA_STYLE_COLOUR('Blau - Wandfarbe - gl\X2\FFFD\X0\nzend',#1340);
#1342=FILL_AREA_STYLE('Blau - Wandfarbe - gl\X2\FFFD\X0\nzend',(#1341));
#1343=SURFACE_STYLE_FILL_AREA(#1342);
#1344=SURFACE_SIDE_STYLE('Blau - Wandfarbe - gl\X2\FFFD\X0\nzend',(#1343));
#1345=SURFACE_STYLE_USAGE(.BOTH.,#1344);
#1346=PRESENTATION_STYLE_ASSIGNMENT((#1345));
#1347=STYLED_ITEM('',(#1346),#1329);
#1348=ADVANCED_BREP_SHAPE_REPRESENTATION('ABSR',(#1329),#36);
#1349=SHAPE_REPRESENTATION_RELATIONSHIP('SRR','None',#1348,#41);
ENDSEC;
END-ISO-10303-21;
